<?xml version="1.0" standalone="no"?><svg xmlns="http://www.w3.org/2000/svg" viewBox="0 0 1440 320"><path fill="#d72323" fill-opacity="0.1" d="M0,128L43.6,32L87.3,192L130.9,96L174.5,64L218.2,256L261.8,32L305.5,128L349.1,192L392.7,128L436.4,224L480,192L523.6,288L567.3,0L610.9,128L654.5,96L698.2,224L741.8,192L785.5,192L829.1,256L872.7,96L916.4,192L960,0L1003.6,288L1047.3,96L1090.9,256L1134.5,224L1178.2,160L1221.8,64L1265.5,96L1309.1,64L1352.7,160L1396.4,96L1440,256L1440,320L1396.4,320L1352.7,320L1309.1,320L1265.5,320L1221.8,320L1178.2,320L1134.5,320L1090.9,320L1047.3,320L1003.6,320L960,320L916.4,320L872.7,320L829.1,320L785.5,320L741.8,320L698.2,320L654.5,320L610.9,320L567.3,320L523.6,320L480,320L436.4,320L392.7,320L349.1,320L305.5,320L261.8,320L218.2,320L174.5,320L130.9,320L87.3,320L43.6,320L0,320Z"></path></svg>